<svg width="100%" height="100%" viewBox="0 0 16 16"xmlns="http://www.w3.org/2000/svg">
  <path d="M3.79183 0C4.114 0 4.37516 0.261167 4.37516 0.583333L4.37516 0.875L7.875 0.875L7.875 0.583333C7.875 0.261167 8.13617 0 8.45833 0C8.7805 0 9.04167 0.261167 9.04167 0.583333L9.04167 0.875L11.0833 0.875C11.7277 0.875 12.25 1.39734 12.25 2.04167L12.25 11.0833C12.25 11.7277 11.7277 12.25 11.0833 12.25L1.16667 12.25C0.52234 12.25 0 11.7277 0 11.0833L0 2.04167C0 1.39733 0.522334 0.875 1.16667 0.875L3.2085 0.875L3.2085 0.583333C3.2085 0.261167 3.46966 0 3.79183 0ZM3.2085 2.04167L1.16667 2.04167L1.16667 4.375L11.0833 4.375L11.0833 2.04167L9.04167 2.04167L9.04167 2.91667C9.04167 3.23883 8.7805 3.5 8.45833 3.5C8.13617 3.5 7.875 3.23883 7.875 2.91667L7.875 2.04167L4.37516 2.04167L4.37516 2.91667C4.37516 3.23883 4.114 3.5 3.79183 3.5C3.46966 3.5 3.2085 3.23883 3.2085 2.91667L3.2085 2.04167ZM11.0833 5.54167L1.16667 5.54167L1.16667 11.0833L11.0833 11.0833L11.0833 5.54167ZM2.625 7.00521C2.625 6.68304 2.88617 6.42188 3.20833 6.42188L4.95833 6.42188C5.2805 6.42188 5.54167 6.68304 5.54167 7.00521C5.54167 7.32737 5.2805 7.58854 4.95833 7.58854L3.20833 7.58854C2.88617 7.58854 2.625 7.32737 2.625 7.00521ZM6.7085 7.00521C6.7085 6.68304 6.96966 6.42188 7.29183 6.42188L9.04183 6.42188C9.364 6.42188 9.62516 6.68304 9.62516 7.00521C9.62516 7.32737 9.364 7.58854 9.04183 7.58854L7.29183 7.58854C6.96966 7.58854 6.7085 7.32737 6.7085 7.00521ZM2.625 9.33333C2.625 9.01117 2.88617 8.75 3.20833 8.75L4.95833 8.75C5.2805 8.75 5.54167 9.01117 5.54167 9.33333C5.54167 9.6555 5.2805 9.91667 4.95833 9.91667L3.20833 9.91667C2.88617 9.91667 2.625 9.6555 2.625 9.33333ZM6.7085 9.33333C6.7085 9.01117 6.96966 8.75 7.29183 8.75L9.04183 8.75C9.364 8.75 9.62516 9.01117 9.62516 9.33333C9.62516 9.6555 9.364 9.91667 9.04183 9.91667L7.29183 9.91667C6.96966 9.91667 6.7085 9.6555 6.7085 9.33333Z" fill="currentColor"/>
</svg>